<?xml version="1.0" encoding="utf-8"?>
<!-- Generator: Adobe Illustrator 20.1.0, SVG Export Plug-In . SVG Version: 6.00 Build 0)  -->
<svg version="1.1" id="Warstwa_1" xmlns="http://www.w3.org/2000/svg" xmlns:xlink="http://www.w3.org/1999/xlink" x="0px" y="0px"
	 viewBox="0 0 250 250" style="enable-background:new 0 0 250 250;" xml:space="preserve">
<style type="text/css">
	.st0{fill-rule:evenodd;clip-rule:evenodd;fill:#E4E5E5;}
	.st1{fill-rule:evenodd;clip-rule:evenodd;fill:#1C2046;}
	.st2{fill-rule:evenodd;clip-rule:evenodd;fill:#DA4C3D;}
	.st3{fill-rule:evenodd;clip-rule:evenodd;fill:#C63627;}
	.st4{fill-rule:evenodd;clip-rule:evenodd;fill:#FFFFFF;}
</style>
<g>
	<ellipse class="st0" cx="125" cy="159.7" rx="42.8" ry="5.3"/>
	<path class="st1" d="M83.6,112l-3.4-13.5c-6.1,0.1-16.4,1.4-15.6,9.9c0.4,4.5,4.7,6.2,8.8,6.1C77.4,114.4,81.2,112.6,83.6,112z"/>
	<path class="st1" d="M166.4,112l3.4-13.5c6.1,0.1,16.4,1.4,15.6,9.9c-0.4,4.5-4.7,6.2-8.8,6.1C172.6,114.4,168.8,112.6,166.4,112z"
		/>
	<path class="st1" d="M115.2,135.4l-20.8-5.7c-4.5,8.1-10.5,22.5,1.6,27.8c6.4,2.9,11.9-1.5,14.8-6.9
		C113.7,145.3,114,139,115.2,135.4z"/>
	<path class="st1" d="M132,135.4l20.8-5.7c4.5,8.1,10.5,22.5-1.6,27.8c-6.4,2.9-11.9-1.5-14.8-6.9C133.4,145.3,133.1,139,132,135.4z
		"/>
	<path class="st2" d="M128.6,142.6v-3.4c0-7.8-9.2-7.8-9.2,0v3.4c0,2.1-0.8,3.6-2.4,4c-8,2-21.8,0.7-27.7-2.8
		c-1.5-0.9-2.6-2.5-2.7-5c-0.3-5.2,1.3-6.8,2.9-8.7c-1.6-5.6-1.3-8.2-1.1-12.1c-8.6,0.2-15-0.6-15.4-6.3l-0.5-8.9
		c-0.2-3.8,1.4-5.8,4.8-6.6c15.4-3.6,30.9-3.5,46.7-4.5c15.8,1,31.3,0.9,46.7,4.5c3.4,0.8,5,2.8,4.8,6.6l-0.5,8.9
		c-0.3,5.7-6.8,6.5-15.4,6.3c0.1,3.9,0.5,6.5-1.1,12.1c1.6,1.9,3.2,3.5,2.9,8.7c-0.1,2.5-1.2,4.1-2.7,5c-5.9,3.4-19.7,4.8-27.7,2.8
		C129.4,146.2,128.6,144.7,128.6,142.6z"/>
	<path class="st3" d="M85.2,94.7c12.8-2,25.7-2.1,38.8-3c11.2,0.7,22.3,0.9,33.2,2.2c-8.7,12.7-30.2,17.9-56.5,14.1
		c-5.5-1.6-10.4-4.4-13.5-9.3C86.4,97.5,85.8,96.2,85.2,94.7z"/>
	<path class="st1" d="M137.5,131.4l-5.6,1.4c-1-3.3-1.5-4.8-2.9-5.9l-0.1,0c-0.5,0.8-1.3,1.3-2.2,1.3h-1.5c-0.9,0-1.7-0.5-2.2-1.3
		l-0.5,0c-2.4,2.1-2.5,3.1-4.1,7.1l-5.5-2.3c2.1-2.5,3-3.9,4.1-4.9c-9.6-0.3-19.8-1.4-28.8-3.8c-0.9-0.2-1.5-1.2-1.3-2.2
		c0.2-1,1.2-1.6,2.1-1.3c10.8,2.8,23.3,3.7,34.5,3.8c0.5-0.4,1.1-0.7,1.8-0.7h1.5c0.7,0,1.3,0.3,1.7,0.7c10.2-0.2,21.1-1.2,30.8-3.7
		c0.9-0.2,1.8,0.4,2.1,1.3c0.2,1-0.3,2-1.3,2.2c-8.1,2.1-17,3.2-25.7,3.6C135.3,127.9,136.4,129.4,137.5,131.4z"/>
	<path class="st1" d="M157.7,57.9c10.7-11.1-5.6-24.7-16.9-18.1C147.9,44.1,153.8,50.7,157.7,57.9z"/>
	<path class="st1" d="M108.2,38.8c-6.5-4.6-15.2-2.7-20.3,3.6c-5.1,6.3-5,15.2,0.3,21.3C91.9,53.1,99.1,43.8,108.2,38.8z"/>
	<path class="st4" d="M157.7,57.9c-3.9-7.2-9.8-13.9-16.9-18c-2.5-1.5-5.2-2.6-8-3.4c-9-2.8-17.4-1.5-24.7,2.4
		c-9.1,5-16.3,14.3-20,24.9c-1.8,5.3-2.9,10.9-2.9,16.4c0,6.9,1.5,12.1,4,16c3.2,4.9,8,7.7,13.5,9.3c31,4.5,55.3-3.5,59.9-21.6
		c0.4-1.5,0.6-3.2,0.7-4.9C163.6,72.5,161.5,64.9,157.7,57.9z"/>
	<path class="st0" d="M106.2,101c-5.5-1.6-10.4-4.4-13.5-9.3c-2.5-3.9-4-9.1-4-16c0-5.6,1-11.2,2.9-16.4c1.4-4,3.3-7.8,5.5-11.2
		c-3.8,4.5-6.8,9.9-8.9,15.6c-1.8,5.3-2.9,10.9-2.9,16.4c0,6.9,1.5,12.1,4,16c3.2,4.9,8,7.7,13.5,9.3c27.3,3.9,49.4-1.8,57.4-15.6
		C150.4,100.4,130.4,104.5,106.2,101z"/>
	<path class="st1" d="M131.7,86.9c-1.1,2.5-3.7,4-7,3.8c-1.5-0.1-3-0.7-4.3-1.5c1.3,1.8,3.3,3.1,5.5,3.2
		C129.4,92.8,132,90.3,131.7,86.9C131.7,87,131.7,86.9,131.7,86.9z"/>
	<path class="st1" d="M125.9,81.3c-1.1-0.1-2.4-0.4-3-0.4c-0.6,0-1,0.5-0.8,1.3c0.6,1.9,2.9,2.5,4.3,2.2c1.4-0.3,3.4-1.7,3.4-3.7
		c0-0.9-0.6-1.1-1.1-0.9C128.1,80,126.9,80.8,125.9,81.3z"/>
	<path class="st1" d="M115.9,75.3c-1.9,0-3.5-1.6-3.5-3.5c0-1.9,1.6-3.5,3.5-3.5c1.9,0,3.5,1.6,3.5,3.5
		C119.4,73.7,117.8,75.3,115.9,75.3L115.9,75.3z M114.6,86.4c2.8-5.1,1.4-5.5,4.3-7.5c10.1-7.3-1.6-16.9-8.6-17.8
		c-3.4-0.4-5,1.7-7,5.8c-1.5,3.2-3.4,6.9-4.4,7.8c-1.7,1.6-2.7,2.6-2.2,5c0.6,3.2,3.8,5.9,6.1,7.8C106.1,90,112.3,90.6,114.6,86.4z"
		/>
	<path class="st1" d="M134.4,73.5c1.7,0,3.1-1.4,3.1-3.1c0-1.7-1.4-3.1-3.1-3.1c-1.7,0-3.1,1.4-3.1,3.1
		C131.2,72,132.6,73.5,134.4,73.5L134.4,73.5z M135.5,83.5c-2.5-4.6-1.3-4.9-3.8-6.8c-9.1-6.6,1.5-15.3,7.8-16.1
		c3-0.4,4.5,1.5,6.3,5.2c1.4,2.9,3,6.2,3.9,7.1c1.6,1.5,2.4,2.4,2,4.5c-0.5,2.9-3.4,5.3-5.5,7C143.2,86.8,137.6,87.3,135.5,83.5z"/>
	<path class="st2" d="M51.7,180.3v-11.7h-4.2v-1c0-0.4,0.1-0.8,0.4-1.1c0.3-0.3,0.6-0.4,1.1-0.4h9.9v2.5h-4.2v11.7H51.7z"/>
	<path class="st2" d="M66.9,172.4c-0.4-0.6-1-0.9-1.7-0.9c-0.8,0-1.4,0.3-1.8,0.8c-0.4,0.6-0.6,1.3-0.6,2.3v5.7H60v-14.2h1.4
		c0.4,0,0.7,0.1,1,0.4c0.3,0.3,0.4,0.6,0.4,1v3.3c0.5-0.8,1.2-1.4,2.1-1.6c0.9-0.2,1.8-0.2,2.6,0.2c0.8,0.3,1.4,0.9,1.9,1.6
		c0.5,0.7,0.8,1.7,0.8,3v6.4h-2.8v-5.7c0-0.4,0-0.8-0.1-1.1C67.3,173.1,67.1,172.8,66.9,172.4z"/>
	<path class="st2" d="M79.3,176.9h2.1c-0.3,1.2-0.9,2-1.7,2.6c-0.9,0.6-1.9,1-3.2,1c-1.6,0-2.8-0.5-3.7-1.5c-0.9-1-1.3-2.4-1.3-4.3
		c0-1.8,0.4-3.1,1.3-4.1c0.9-1,2.1-1.5,3.7-1.5c1.7,0,2.9,0.5,3.9,1.5c0.9,1,1.3,2.4,1.3,4.3c0,0.1,0,0.2,0,0.3c0,0.1,0,0.1,0,0.2
		c0,0.1,0,0.2,0,0.3h-7.2c0,0.9,0.2,1.5,0.6,1.9c0.4,0.4,0.9,0.7,1.6,0.7c0.5,0,0.9-0.1,1.2-0.3c0.1,0,0.2-0.1,0.2-0.1
		c0.1-0.1,0.1-0.1,0.2-0.2c0-0.1,0.1-0.2,0.3-0.3C78.7,177,79,176.9,79.3,176.9L79.3,176.9z M74.4,173.7h4.2
		c-0.1-0.7-0.2-1.3-0.6-1.7c-0.4-0.4-0.9-0.6-1.5-0.6c-0.6,0-1.1,0.2-1.5,0.6C74.6,172.4,74.4,173,74.4,173.7z"/>
	<path class="st1" d="M8.6,214.2v-33.6c0-1.1,0.4-2,1.1-2.8c0.8-0.8,1.7-1.2,2.8-1.3H20l7.4,28.7l7.4-28.7h11.5v37.7h-7.2v-30.4
		l-7.6,30.4h-8l-7.8-30.4v30.4H8.6z"/>
	<path class="st1" d="M66.6,199.6c-1,0.5-2.4,1-4.3,1.4c-1.7,0.4-2.5,0.6-2.5,0.6c-1.3,0.4-2.3,0.8-2.8,1.4
		c-0.5,0.8-0.8,1.6-0.8,2.4c0,1.1,0.3,2,1,2.6c0.7,0.6,1.6,0.9,2.8,0.9c2,0,3.6-0.6,4.8-1.8c1.2-1.2,1.8-2.8,1.8-4.8V199.6
		L66.6,199.6z M68.3,213c-1.5,0.8-3.2,1.3-4.9,1.5c-1.7,0.2-3.2,0.3-4.5,0.3c-2.6,0-4.9-0.7-6.9-2.1c-2-1.4-2.9-3.8-2.9-7
		c0-3.1,0.9-5.2,2.7-6.6c1.8-1.3,4.1-2.2,6.8-2.6c0.4,0,0.8-0.1,1.3-0.2c0.5-0.1,1.1-0.2,1.7-0.3c3.2-0.4,4.8-1.4,4.8-2.8
		c0-1.1-0.6-1.8-1.7-2.1c-1.1-0.3-2.2-0.5-3.1-0.5c-1,0-1.9,0.1-2.7,0.4c-0.8,0.3-1.4,0.8-1.7,1.6h-7.3c0.3-2.3,1.3-4.1,3.1-5.6
		c2-1.7,4.8-2.5,8.4-2.5c4.1,0,7.1,0.7,9.2,2.1c2.1,1.5,3.2,3.5,3.2,6.1v9.9c0,2.9-0.5,5.2-1.6,6.8C71.1,211.1,69.8,212.3,68.3,213z
		"/>
	<path class="st1" d="M76.4,204.6h7.4c0.1,1.5,0.6,2.5,1.6,3.3c1.1,0.7,2.6,1.1,4.4,1.1c1.3,0,2.4-0.3,3.4-0.8
		c0.9-0.5,1.3-1.2,1.3-2.1c0-1.3-1.5-2.3-4.6-3c-1.3-0.2-2.3-0.4-3-0.7c-3.9-0.9-6.4-2.1-7.8-3.4c-1.5-1.3-2.2-3.1-2.2-5.2
		c0-2.8,1.1-5.1,3.2-6.9c2.2-1.7,5-2.5,8.5-2.5c3.8,0,6.8,0.8,9.1,2.5c2.1,1.8,3.2,4.2,3.4,7.1h-4.7c-1.4,0-2.4-0.6-3.2-1.9l0,0
		c-0.3-0.3-0.6-0.6-0.9-0.9c-0.9-0.7-2.1-1-3.6-1c-1.5,0-2.6,0.2-3.3,0.7c-0.7,0.4-1,1.1-1,2c0,1.2,1.9,2.1,5.7,2.9
		c0.4,0.1,0.8,0.3,1.1,0.3c0.3,0.1,0.6,0.1,0.9,0.1c3.7,0.9,6.3,2,7.8,3.3c1.4,1.3,2.1,3.1,2.1,5.2c0,3.2-1.2,5.7-3.5,7.4
		c-2.2,1.6-5.5,2.4-9.8,2.4c-4.2,0-7.3-0.8-9.3-2.5c-2.1-1.7-3.2-4.1-3.2-7.3V204.6z"/>
	<path class="st1" d="M116.3,214.2c-2.4,0.1-5,0.1-7.8-0.1c-2.8-0.2-4.2-2-4.2-5.4v-32.1h3.9c0.9,0,1.8,0.4,2.5,1.1
		c0.7,0.7,1.1,1.6,1.1,2.6v4.9h4.5v1.5c0,1.1-0.4,2-1.1,2.7c-0.7,0.7-1.6,1-2.6,1h-0.8v16.2c0,1.2,0.7,1.9,2.2,1.9h2.3V214.2z"/>
	<path class="st1" d="M137.9,205.3h5.5c-0.8,3.1-2.3,5.4-4.6,7c-2.3,1.7-5.1,2.5-8.5,2.5c-4.2,0-7.4-1.4-9.7-4
		c-2.3-2.6-3.5-6.4-3.5-11.3c0-4.7,1.1-8.3,3.4-10.9c2.3-2.7,5.6-4,9.7-4c4.4,0,7.8,1.3,10.2,3.9c2.3,2.7,3.5,6.5,3.5,11.3
		c0,0.3,0,0.6,0,0.8c0,0.2,0,0.4,0,0.4c0,0.4,0,0.6-0.1,0.8h-18.9c0.1,2.3,0.6,3.9,1.6,5c0.9,1.2,2.4,1.8,4.3,1.8
		c1.2,0,2.3-0.3,3.2-0.8c0.2-0.1,0.4-0.2,0.6-0.4c0.2-0.2,0.4-0.4,0.6-0.6c0.1-0.2,0.3-0.5,0.8-0.9
		C136.4,205.5,137.1,205.3,137.9,205.3L137.9,205.3z M124.8,196.7H136c-0.1-2-0.7-3.4-1.5-4.4c-1-1-2.3-1.5-4-1.5
		c-1.6,0-2.9,0.5-3.9,1.5C125.5,193.4,124.9,194.9,124.8,196.7z"/>
	<path class="st1" d="M146.6,214.2v-14.1c0-2.8,0.4-5.2,1.3-7.1c0.8-1.9,2-3.5,3.4-4.6c1.4-1.1,3-1.9,4.9-2.4
		c1.9-0.5,3.8-0.8,5.7-0.8c0.1,0,0.3,0,0.5,0c0.2,0,0.4,0,0.5,0v7.8h-2.5c-2.1,0-3.7,0.5-4.7,1.5c-1,1-1.5,2.6-1.5,4.8v15H146.6z"/>
	<path class="st2" d="M198.8,201.2c-0.4,4.4-2,7.8-4.9,10.3c-3,2.4-6.9,3.6-11.8,3.6c-5.7,0-10-1.7-13-5.1c-3-3.3-4.5-8.1-4.5-14.5
		c0-6.6,1.5-11.5,4.6-14.7c3.1-3.4,7.6-5.1,13.5-5.1c4.8,0,8.6,1.2,11.5,3.6c2.7,2.3,4.2,5.6,4.6,9.8h-4.7c-1.8,0-3-0.8-3.7-2.3l0,0
		c-0.5-1-1.1-1.8-1.9-2.5c-1.5-1.1-3.4-1.6-5.8-1.6c-3.3,0-5.9,1.1-7.8,3.3c-1.8,2.2-2.6,5.4-2.6,9.6c0,4.1,0.9,7.2,2.6,9.4
		c1.7,2.3,4.2,3.4,7.5,3.4c2.3,0,4.3-0.6,5.8-1.7c1.4-1.1,2.4-2.8,2.9-5.2H198.8z"/>
	<path class="st2" d="M226.6,185.2v17c0,5.2-1.4,8.6-4,10.2c-2.7,1.6-5.6,2.4-8.8,2.4c-3.1-0.1-6-1-8.6-2.6
		c-2.6-1.6-3.9-4.9-3.9-9.9v-17h7.6v18.6c0,1.7,0.5,3,1.5,3.8c1,0.8,2.2,1.2,3.5,1.2c1.3,0,2.5-0.4,3.6-1.2c1.1-0.8,1.6-2.1,1.6-3.8
		v-14.9l0,0c0-1,0.3-1.9,1-2.6c0.7-0.7,1.6-1.1,2.7-1.1H226.6z"/>
	<path class="st2" d="M241.4,214.2c-2.4,0.1-5,0.1-7.8-0.1c-2.8-0.2-4.2-2-4.2-5.4v-32.1h3.9c0.9,0,1.8,0.4,2.5,1.1
		c0.7,0.7,1.1,1.6,1.1,2.6v4.9h4.5v1.5c0,1.1-0.4,2-1.1,2.7c-0.7,0.7-1.6,1-2.6,1h-0.8v16.2c0,1.2,0.7,1.9,2.2,1.9h2.3V214.2z"/>
</g>
</svg>
